<?xml version="1.0" standalone="no"?>
<!DOCTYPE svg PUBLIC "-//W3C//DTD SVG 20010904//EN"
 "http://www.w3.org/TR/2001/REC-SVG-20010904/DTD/svg10.dtd">
<svg version="1.0" xmlns="http://www.w3.org/2000/svg"
 width="192.000000pt" height="192.000000pt" viewBox="0 0 192.000000 192.000000"
 preserveAspectRatio="xMidYMid meet">
<metadata>
Created by potrace 1.10, written by Peter Selinger 2001-2011
</metadata>
<g transform="translate(0.000000,192.000000) scale(0.100000,-0.100000)"
fill="#000000" stroke="none">
<path d="M1230 1463 c-50 -8 -96 -26 -126 -48 -28 -22 -38 -23 -130 -18 -268
14 -471 -112 -525 -326 -18 -71 -37 -93 -63 -72 -24 20 -19 50 9 63 28 13 33
36 9 45 -23 9 -61 -16 -75 -48 -9 -23 -9 -36 1 -59 15 -36 37 -50 78 -50 28 0
30 -3 35 -51 8 -64 43 -140 94 -204 33 -42 42 -63 53 -129 18 -104 30 -116
118 -116 82 0 109 16 118 68 l6 37 86 -3 c107 -4 112 -5 112 -37 0 -45 32 -65
103 -65 35 0 71 6 81 13 10 7 23 42 32 82 14 64 20 74 70 120 30 28 72 75 92
105 33 48 43 55 75 58 59 5 77 37 77 136 0 97 -14 126 -63 126 -42 0 -49 6
-83 70 -16 30 -50 76 -76 102 l-48 47 14 68 c19 90 11 100 -74 86z m26 -80
c-18 -111 -20 -105 26 -138 24 -17 57 -55 75 -85 53 -92 70 -108 111 -112 l37
-3 3 -82 c3 -76 1 -83 -16 -83 -47 0 -84 -23 -116 -74 -18 -29 -60 -76 -93
-104 -54 -47 -61 -58 -72 -110 -21 -98 -17 -92 -76 -92 -57 0 -56 -1 -70 67
l-6 31 -107 0 c-59 1 -118 2 -132 4 -23 3 -26 -1 -34 -49 l-9 -53 -63 0 c-72
0 -63 -11 -88 112 -10 50 -22 77 -46 105 -18 20 -47 67 -64 103 -26 57 -30 76
-30 150 0 70 5 95 25 140 46 100 126 171 237 212 48 18 80 22 204 23 140 0
148 1 172 24 21 20 93 47 130 50 5 1 6 -16 2 -36z"/>
<path d="M795 1298 c-46 -12 -60 -27 -42 -45 9 -10 22 -10 47 -3 19 6 77 13
128 17 81 5 92 8 92 25 0 16 -9 18 -92 17 -51 -1 -111 -6 -133 -11z"/>
<path d="M1120 1161 c-32 -4 -46 -11 -48 -23 -2 -13 3 -18 17 -18 12 0 21 -1
21 -3 0 -2 -28 -31 -61 -66 l-62 -63 -56 56 c-31 31 -61 56 -66 56 -6 0 -59
-49 -119 -109 -76 -76 -107 -114 -103 -125 4 -9 12 -16 19 -16 7 0 56 43 108
95 l96 95 54 -55 c30 -30 59 -55 64 -55 6 0 46 35 88 77 51 50 78 71 78 60 0
-10 8 -17 20 -17 19 0 21 5 18 57 -2 31 -7 57 -13 58 -5 1 -30 -1 -55 -4z"/>
<path d="M1265 1126 c-20 -15 -17 -44 7 -59 12 -8 21 -7 32 2 36 30 -1 85 -39
57z"/>
<path d="M1155 998 c-3 -7 -6 -71 -7 -143 l-3 -130 -32 -3 c-31 -3 -33 -1 -33
28 0 23 4 31 13 27 20 -8 41 9 34 27 -4 9 -15 16 -26 16 -16 0 -20 8 -23 43
-2 34 -7 42 -23 42 -18 0 -20 -8 -23 -92 l-3 -93 -28 0 -29 0 5 60 c6 63 -6
94 -33 83 -10 -4 -14 -24 -14 -75 l0 -69 -37 3 -38 3 -3 78 c-3 69 -5 77 -22
77 -18 0 -20 -7 -20 -88 0 -55 4 -92 12 -100 8 -8 61 -12 173 -12 209 0 197
-11 193 180 -2 104 -6 145 -15 148 -7 2 -15 -2 -18 -10z"/>
<path d="M639 794 c-16 -19 13 -32 66 -30 42 1 50 4 50 20 0 15 -8 19 -53 20
-30 0 -58 -4 -63 -10z"/>
</g>
</svg>
